<svg width="314" height="134" viewBox="0 0 314 134" fill="none" xmlns="http://www.w3.org/2000/svg">
<path d="M116.336 118.576C112.752 118.576 109.552 117.915 106.736 116.592C103.92 115.227 101.723 113.349 100.144 110.96C98.608 108.528 97.84 105.776 97.84 102.704V88.368C97.84 85.296 98.608 82.5653 100.144 80.176C101.723 77.7867 103.899 75.9307 106.672 74.608C109.445 73.2853 112.624 72.624 116.208 72.624C119.792 72.624 122.971 73.2 125.744 74.352C128.517 75.4613 130.672 77.0187 132.208 79.024C133.787 81.0293 134.576 83.3333 134.576 85.936C134.576 87.216 134.149 88.2187 133.296 88.944C132.443 89.6693 131.312 90.032 129.904 90.032C129.605 90.032 129.157 89.9893 128.56 89.904C128.645 89.392 128.688 88.5813 128.688 87.472C128.688 85.6373 128.155 83.9947 127.088 82.544C126.064 81.0933 124.592 79.9627 122.672 79.152C120.795 78.3413 118.64 77.936 116.208 77.936C113.819 77.936 111.685 78.384 109.808 79.28C107.931 80.1333 106.459 81.3707 105.392 82.992C104.368 84.5707 103.856 86.3627 103.856 88.368V102.704C103.856 104.752 104.368 106.587 105.392 108.208C106.459 109.787 107.931 111.024 109.808 111.92C111.728 112.816 113.904 113.264 116.336 113.264C118.811 113.264 121.008 112.859 122.928 112.048C124.848 111.237 126.341 110.128 127.408 108.72C128.475 107.269 129.008 105.605 129.008 103.728C129.008 103.045 128.965 102.235 128.88 101.296C129.477 101.211 129.904 101.168 130.16 101.168C131.568 101.168 132.699 101.573 133.552 102.384C134.448 103.195 134.896 104.283 134.896 105.648C134.896 108.165 134.107 110.405 132.528 112.368C130.949 114.331 128.752 115.867 125.936 116.976C123.163 118.043 119.963 118.576 116.336 118.576ZM144.726 118.576C143.446 118.32 142.443 117.787 141.718 116.976C140.993 116.123 140.63 115.099 140.63 113.904C140.63 113.093 140.822 112.24 141.206 111.344L156.502 74.544C157.014 73.264 157.995 72.624 159.446 72.624C160.811 72.624 161.771 73.264 162.326 74.544L177.622 111.344C178.006 112.24 178.198 113.093 178.198 113.904C178.198 115.056 177.835 116.059 177.11 116.912C176.385 117.765 175.382 118.32 174.102 118.576L168.598 105.2H150.23L144.726 118.576ZM166.742 100.016L158.486 79.088L157.974 79.28L159.126 82.224L152.086 100.016H166.742ZM185.543 76.016C185.543 75.2053 185.82 74.544 186.375 74.032C186.972 73.4773 187.719 73.2 188.615 73.2H206.279C210.417 73.2 213.703 74.416 216.135 76.848C218.609 79.2373 219.847 82.4373 219.847 86.448C219.847 91.4827 217.649 95.0453 213.255 97.136V97.328C215.175 98.1387 216.647 99.376 217.671 101.04C218.695 102.661 219.207 104.645 219.207 106.992V113.584C219.207 115.205 218.695 116.443 217.671 117.296C216.647 118.149 215.153 118.576 213.191 118.576V107.376C213.191 104.859 212.615 102.96 211.463 101.68C210.353 100.357 208.689 99.696 206.471 99.696H191.495V113.584C191.495 115.205 190.983 116.443 189.959 117.296C188.977 118.149 187.505 118.576 185.543 118.576V76.016ZM206.087 94.512C208.433 94.512 210.289 93.7867 211.655 92.336C213.063 90.8853 213.767 88.9013 213.767 86.384C213.767 83.824 213.105 81.8613 211.783 80.496C210.46 79.1307 208.561 78.448 206.087 78.448H191.495V94.512H206.087Z" fill="white"/>
<path d="M249.691 6.00305C249.448 6.3584 249.182 6.50673 248.867 6.61645C247.845 6.97318 246.906 7.1375 245.709 7.28479C243.879 7.50989 241.908 7.88162 240.106 8.27356C237.801 8.77491 235.539 9.45336 233.294 10.1779C231.261 10.8342 229.252 11.5725 227.279 12.3934C225.403 13.1744 223.561 14.0523 221.749 14.9752C220.207 15.7614 218.695 16.6042 217.208 17.4929C215.683 18.405 214.185 19.368 212.722 20.3768C211.048 21.5319 209.429 22.7537 207.815 23.9932C206.88 24.7117 205.936 25.4301 205.05 26.2087C204.452 26.7343 204.51 26.8179 203.732 27.344C203.136 27.7472 202.408 27.6897 201.736 27.3715C201.065 27.0532 199.951 26.3918 199.951 26.3918C199.951 26.3918 201.288 25.3924 202.34 24.6615C202.321 24.6646 202.294 24.6773 202.276 24.6798C201.607 24.7721 200.747 24.5227 200.079 24.4235C199.674 24.3632 199.252 24.3457 198.843 24.3685C197.953 24.4182 197.081 24.6253 196.206 24.7988C191.897 25.6538 187.589 26.5741 183.371 27.8018C180.331 28.6862 177.323 29.7007 174.408 30.9329C173.438 31.3426 172.455 31.7557 171.588 32.3519C170.788 32.9017 170.04 33.5515 169.436 34.3112C168.866 35.0284 168.472 35.8808 168.081 36.7098C167.717 37.4835 167.335 38.261 167.166 39.0994C166.903 40.4041 167.03 41.7601 167.038 43.0911C167.046 44.5251 167.089 45.9669 167.23 47.394C167.374 48.8575 167.587 50.1272 167.651 51.5963C167.664 51.9037 167.659 52.4056 167.532 52.6858C167.436 52.8967 167.416 52.9402 167.349 53.1619C167.288 53.3616 167.386 53.5833 167.468 53.7753C167.664 54.2347 167.975 54.6488 168.328 55.0021C168.505 55.1787 168.76 55.2607 168.942 55.4324C169.207 55.6828 169.36 56.0368 169.619 56.293C170.17 56.8368 170.773 57.3463 171.46 57.7029C172.43 58.2071 173.523 58.4511 174.591 58.6916C175.74 58.9507 176.923 59.0801 178.097 59.1769C178.913 59.2441 179.606 59.3319 180.551 59.241C181.226 59.2283 181.119 59.2342 181.732 59.2227C181.231 57.7881 180.954 56.2411 180.954 54.6359C180.954 46.9582 187.183 40.7382 194.86 40.7382C202.538 40.7382 208.758 46.9582 208.758 54.6359C208.758 56.05 208.546 57.4151 208.154 58.7008C208.593 58.6933 208.508 58.6996 208.978 58.6916C214.272 58.6272 219.005 58.5524 223.526 58.4811C223.568 57.1684 223.642 55.8607 223.745 54.5535C226.438 53.5892 229.474 54.2848 232.306 54.1049C233.227 51.8266 234.081 49.1348 235.391 46.8813C235.293 45.7637 233.607 45.414 233.093 44.4094C232.129 42.818 229.185 41.8619 229.989 39.6029C234.54 35.2606 238.761 30.466 243.512 26.3278C243.172 26.3494 242.787 26.3705 242.504 26.3918C238.301 26.7104 234.105 27.1424 229.916 27.6186C228.337 27.7982 225.43 28.0215 225.43 28.0215C225.43 28.0215 225.445 26.8694 225.283 26.3278C225.122 25.7837 224.487 24.8263 224.487 24.8263L226.904 15.0942C226.904 15.0942 229.624 13.912 231.024 13.4371C233.196 12.7002 235.42 12.1273 237.652 11.5969C239.906 11.0615 242.182 10.5853 244.473 10.2419C246.263 9.97355 248.07 9.83592 249.874 9.69262C250.958 9.60663 253.125 9.50952 253.125 9.50952C253.125 9.50952 252.148 14.9282 251.532 17.6119C250.883 20.4376 249.316 26.0256 249.316 26.0256C249.316 26.0256 247.038 26.1275 244.903 26.2454C247.052 27.5928 248.583 29.8819 250.497 31.5554C252.737 30.5855 255.194 29.3308 257.666 28.6532C258.221 27.6725 257.853 26.0512 257.931 24.8354C258.108 23.2105 257.358 20.945 258.682 19.7817C258.719 19.7787 258.755 19.7754 258.792 19.7726L259.817 9.4729C259.817 9.4729 262.662 9.47705 264.083 9.53698C266.133 9.62341 268.183 9.78562 270.227 9.96728C272.318 10.1532 274.41 10.3492 276.489 10.6448C278.001 10.8598 279.576 11.1281 281.002 11.4413C281.344 11.5163 281.822 11.7324 281.836 12.0822C281.916 14.2343 281.929 16.2828 281.955 18.381C281.982 20.622 281.982 25.1009 281.982 25.1009C281.982 25.1009 280.45 25.1092 279.327 25.1193C279.281 26.2402 279.23 27.3692 279.3 28.4609C281.541 29.406 284.245 30.1651 286.431 31.5371C287.624 31.4877 287.973 29.7799 288.986 29.2666C290.563 28.2728 291.535 25.3503 293.792 26.1447C298.32 30.8962 303.336 35.2571 307.598 40.2712C306.696 42.1713 305.024 43.5609 303.46 45.0137C305.621 47.4288 306.949 50.602 306.994 54.0865C307.642 53.9872 308.303 53.8904 308.88 54.0957C309.217 54.1523 309.607 54.1329 310.015 54.1049C310.129 54.0155 310.243 53.9302 310.354 53.8394C311.093 53.2338 311.762 52.5461 312.378 51.816C312.766 51.356 313.262 50.9226 313.421 50.342C313.622 49.6093 313.277 49.7763 313.238 48.0624C313.176 45.3607 313.241 42.6559 313.055 39.96C312.981 38.8911 312.96 37.6742 312.689 36.7648C312.594 36.4455 312.288 36.1331 312.075 35.8767C311.879 35.6405 311.494 35.5961 311.462 35.2908C311.339 34.1298 311.326 32.9167 311.27 31.7294C311.233 30.9632 311.277 30.1948 311.215 29.4314C311.207 29.4827 311.194 29.5368 311.178 29.587C311.101 29.8374 310.816 29.9688 310.693 30.2004C310.563 30.4465 310.492 30.7225 310.446 30.9969C310.355 31.5321 310.358 32.0844 310.382 32.6266C310.407 33.1934 310.557 33.7455 310.601 34.3112C310.629 34.6684 310.775 35.0641 310.629 35.3915C310.52 35.6369 310.264 35.8109 310.015 35.9133C309.532 36.113 308.969 36.0975 308.45 36.0323C307.914 35.9651 307.376 35.7882 306.912 35.5105C305.999 34.9637 305.325 34.0885 304.577 33.3315C303.35 32.09 302.106 30.8508 301.052 29.4589C300.783 29.1034 300.424 28.7629 300.348 28.3236C300.281 27.9419 300.361 27.5043 300.586 27.1884C301.016 26.5814 301.819 26.3472 302.49 26.0256C303.284 25.6452 304.121 25.3207 304.98 25.1284C305.602 24.9892 306.247 24.9496 306.884 24.9453C307.501 24.9412 308.132 24.9322 308.725 25.1009C309.266 25.2551 309.827 25.4726 310.226 25.87C310.279 25.9228 310.329 25.9834 310.373 26.0439C309.979 25.1087 309.389 24.2851 308.807 23.453C308.694 23.4117 307.413 22.9363 306.701 22.7664C306.187 22.6436 305.227 22.6473 305.227 22.6473C305.227 22.6473 303.985 20.8468 303.296 20.0015C302.457 18.9741 301.572 17.9878 300.622 17.0626C299.588 16.0549 298.491 15.0997 297.335 14.2336C296.193 13.3774 293.747 11.899 293.747 11.899L295.761 10.9011C295.461 10.5697 295.873 9.71059 295.559 9.32641C295.321 9.03503 294.923 9.03498 294.424 9.02429C293.073 8.99534 291.808 8.92223 290.46 8.83203C288.732 8.71642 287.022 8.44485 285.305 8.21863C283.604 7.99435 281.912 7.66427 280.206 7.47705C276.676 7.08974 273.133 6.85101 269.586 6.68054C265.701 6.4938 261.801 6.55639 257.913 6.43335C256.459 6.38734 255.007 6.32631 253.555 6.25024C252.265 6.18267 250.983 5.9723 249.691 6.00305ZM285.516 12.604C285.516 12.604 287.506 13.086 288.464 13.4371C289.806 13.9288 291.131 14.4914 292.364 15.2133C293.906 16.1161 295.351 17.2026 296.695 18.381C297.609 19.1829 298.567 19.9868 299.212 21.0177C299.783 21.9295 299.491 21.8883 298.654 22.2811C296.912 23.0988 294.972 23.414 293.097 23.8467C291.303 24.2605 287.667 24.8263 287.667 24.8263L285.516 12.604ZM225.494 15.7076C224.843 18.3694 223.907 21.2412 223.251 23.9016C223.251 23.9016 222.239 23.6686 221.749 23.7185C221.33 23.7613 220.561 24.0126 220.001 24.3044C219.512 24.5591 218.925 24.9346 218.499 25.2841C218.041 25.6607 217.514 26.3327 217.3 26.8862C216.989 27.69 217.3 29.2117 217.3 29.2117C217.3 29.2117 216.084 29.3219 215.304 29.4039C214.528 29.4855 212.97 29.587 212.97 29.587C212.97 29.587 213.727 26.4407 214.26 24.9178C214.622 23.8882 215.551 21.9058 215.551 21.9058C215.551 21.9058 216.692 20.7941 217.327 20.3127C218.545 19.3905 219.871 18.611 221.2 17.8591C222.594 17.0706 225.494 15.7076 225.494 15.7076ZM185.833 30.3744C186.051 30.3688 186.262 30.3936 186.447 30.5026C186.628 30.6094 186.766 30.851 186.749 31.061C186.72 31.4243 186.328 31.6625 186.071 31.9216C185.222 32.7809 184.198 33.4406 183.252 34.1921C181.928 35.244 180.66 36.3745 179.26 37.3232C178.653 37.7349 178.039 38.1538 177.356 38.4219C176.75 38.6596 176.095 38.7583 175.451 38.8522C174.254 39.0269 173.045 39.1159 171.835 39.0994C171.403 39.0935 170.908 39.2129 170.544 38.9803C170.304 38.8272 170.295 38.4581 170.114 38.2388C169.837 37.9032 169.477 37.6344 169.125 37.3782C168.932 37.2376 168.553 37.2471 168.512 37.012C168.389 36.3098 169.377 35.8734 169.867 35.3549C170.324 34.8701 170.72 34.2506 171.341 34.009C171.627 33.8977 171.957 34.0796 172.256 34.009C173.013 33.8303 173.628 33.2702 174.343 32.9653C175.243 32.5823 176.18 32.2827 177.108 31.9766C178.043 31.6684 178.979 31.3406 179.937 31.116C180.786 30.917 181.645 30.7936 182.51 30.6857C183.244 30.5941 183.987 30.5333 184.726 30.5026C185.083 30.4877 185.471 30.3837 185.833 30.3744ZM194.86 42.4777C188.146 42.4777 182.702 47.9218 182.702 54.6359C182.702 61.3499 188.146 66.7941 194.86 66.7941C201.575 66.7941 207.01 61.3499 207.01 54.6359C207.01 47.9218 201.575 42.4777 194.86 42.4777ZM194.86 45.7919C199.744 45.7919 203.695 49.7526 203.695 54.6359C203.695 59.5191 199.744 63.4799 194.86 63.4799C189.977 63.4799 186.016 59.5191 186.016 54.6359C186.016 49.7526 189.977 45.7919 194.86 45.7919ZM302.215 46.2313C302.09 46.3645 301.969 46.5065 301.849 46.6433C302.797 48.8803 304.074 51.3716 304.77 53.8577C304.92 53.9739 305.077 54.0508 305.246 54.1049C305.205 51.0881 304.072 48.3357 302.215 46.2313ZM268.405 47.6229C265.583 47.6893 262.845 48.3862 260.385 49.7469C256.973 51.5039 254.411 54.4766 252.932 57.9318C261.154 57.7621 269.204 57.6011 278.366 57.4648C278.772 57.4588 279.164 57.4456 279.565 57.4374C279.328 56.4191 279.199 55.3603 279.199 54.2697C279.199 53.3389 279.29 52.4299 279.464 51.5505C276.53 49.1265 272.842 47.6297 268.972 47.6229C268.784 47.6218 268.593 47.6185 268.405 47.6229ZM281.012 52.9788C280.967 53.4026 280.938 53.834 280.938 54.2697C280.938 58.2349 282.834 61.7547 285.772 63.9742C285.666 59.8209 283.834 55.9237 281.012 52.9788Z" fill="white"/>
<path d="M260.271 29.4772C259.826 31.2522 257.533 30.7994 256.261 31.6195C254.152 32.3989 252.126 33.4018 250.182 34.5583C248.228 32.57 246.245 30.6096 244.277 28.6349C240.34 32.5717 236.404 36.5084 232.467 40.4452C234.442 42.4133 236.402 44.3961 238.39 46.3503C236.506 49.4849 235.09 52.9111 234.197 56.4395C231.414 56.4395 228.631 56.4395 225.848 56.4395C225.848 62.0059 225.848 67.5723 225.848 73.1387C228.631 73.1387 231.414 73.1387 234.197 73.1387C235.106 76.6839 236.477 80.0918 238.381 83.2186C236.41 85.1901 234.438 87.1615 232.467 89.1329C236.404 93.0728 240.34 97.0126 244.277 100.952C246.244 98.9792 248.223 97.0189 250.182 95.0381C253.325 96.9146 256.74 98.3215 260.271 99.2129C260.271 101.996 260.271 104.779 260.271 107.562C265.838 107.562 271.404 107.562 276.971 107.562C276.971 104.779 276.971 101.996 276.971 99.2129C280.502 98.3233 283.917 96.9138 287.06 95.0381C289.019 97.0186 290.998 98.9795 292.965 100.952C296.905 97.0126 300.845 93.0728 304.784 89.1329C302.813 87.1615 300.842 85.1901 298.87 83.2186C300.753 80.0777 302.147 76.6889 303.045 73.1387C305.828 73.1387 308.611 73.1387 311.395 73.1387C311.395 67.5723 311.395 62.0059 311.395 56.4395C308.611 56.4395 305.828 56.4395 303.045 56.4395C302.148 52.8943 300.746 49.4974 298.87 46.3503C300.851 44.3912 302.811 42.412 304.784 40.4452C300.845 36.5084 296.905 32.5717 292.965 28.6349C290.997 30.6096 289.014 32.5699 287.06 34.5583C283.918 32.6715 280.505 31.2527 276.971 30.3835C276.971 27.5942 276.971 24.8049 276.971 22.0156C271.404 22.0156 265.838 22.0156 260.271 22.0156C260.271 24.5028 260.271 26.99 260.271 29.4772ZM268.621 45.3066C278.483 45.0768 287.519 53.4465 288.075 63.3047C288.898 72.5586 282.261 81.7432 273.217 83.7588C264.646 85.9001 254.995 81.4855 251.189 73.5507C247.05 65.5224 249.408 54.7121 256.719 49.3624C260.107 46.7641 264.331 45.2855 268.621 45.3066Z" fill="#0E5D7F"/>
<path d="M22.208 67.576C18.4107 67.576 15.0187 66.8507 12.032 65.4C9.088 63.9493 6.784 61.9227 5.12 59.32C3.456 56.7173 2.624 53.752 2.624 50.424V38.648C2.624 35.32 3.43467 32.376 5.056 29.816C6.72 27.2133 9.00267 25.208 11.904 23.8C14.8053 22.3493 18.1333 21.624 21.888 21.624C25.6427 21.624 28.9707 22.2 31.872 23.352C34.816 24.4613 37.0987 26.04 38.72 28.088C40.3413 30.0933 41.152 32.3973 41.152 35C41.152 36.5787 40.6187 37.8373 39.552 38.776C38.528 39.672 37.1413 40.12 35.392 40.12C34.5387 40.12 33.6 39.992 32.576 39.736C32.6613 38.712 32.704 37.7093 32.704 36.728C32.704 34.4667 31.7013 32.632 29.696 31.224C27.6907 29.816 25.088 29.112 21.888 29.112C18.7307 29.112 16.1493 30.008 14.144 31.8C12.1813 33.5493 11.2 35.832 11.2 38.648V50.424C11.2 53.2827 12.224 55.608 14.272 57.4C16.32 59.192 18.9653 60.088 22.208 60.088C25.408 60.088 28.0107 59.384 30.016 57.976C32.0213 56.568 33.024 54.7547 33.024 52.536C33.024 51.512 32.9813 50.5307 32.896 49.592C33.9627 49.3787 34.8587 49.272 35.584 49.272C37.376 49.272 38.8053 49.7413 39.872 50.68C40.9387 51.6187 41.472 52.8987 41.472 54.52C41.472 57.0373 40.6613 59.2987 39.04 61.304C37.4187 63.2667 35.136 64.8027 32.192 65.912C29.2907 67.0213 25.9627 67.576 22.208 67.576ZM65.315 67.576C61.8163 67.576 58.6163 66.8933 55.715 65.528C52.8137 64.12 50.5097 62.2213 48.803 59.832C47.139 57.4427 46.307 54.84 46.307 52.024V37.112C46.307 34.296 47.139 31.7147 48.803 29.368C50.5097 26.9787 52.8137 25.1013 55.715 23.736C58.6163 22.328 61.8163 21.624 65.315 21.624C68.8137 21.624 72.0137 22.328 74.915 23.736C77.859 25.1013 80.163 26.9787 81.827 29.368C83.5337 31.7147 84.387 34.296 84.387 37.112V52.024C84.387 54.84 83.5337 57.4427 81.827 59.832C80.163 62.2213 77.859 64.12 74.915 65.528C72.0137 66.8933 68.8137 67.576 65.315 67.576ZM65.315 60.088C68.515 60.088 71.075 59.3413 72.995 57.848C74.915 56.312 75.875 54.328 75.875 51.896V37.304C75.875 34.8293 74.915 32.8453 72.995 31.352C71.075 29.816 68.515 29.048 65.315 29.048C62.1577 29.048 59.619 29.816 57.699 31.352C55.779 32.8453 54.819 34.8293 54.819 37.304V51.896C54.819 54.328 55.779 56.312 57.699 57.848C59.619 59.3413 62.1577 60.088 65.315 60.088ZM95.0685 67C93.8312 67 92.7645 66.552 91.8685 65.656C91.0152 64.76 90.5885 63.6933 90.5885 62.456V27.96C90.5885 25.8267 91.2925 24.248 92.7005 23.224C94.1085 22.1573 96.2632 21.624 99.1645 21.624V59.576H116.445C118.45 59.576 119.965 60.216 120.989 61.496C122.013 62.7333 122.525 64.568 122.525 67H95.0685ZM132.569 67C131.331 67 130.265 66.552 129.369 65.656C128.515 64.76 128.089 63.6933 128.089 62.456V27.96C128.089 25.8267 128.793 24.248 130.201 23.224C131.609 22.1573 133.763 21.624 136.665 21.624V59.576H153.945C155.95 59.576 157.465 60.216 158.489 61.496C159.513 62.7333 160.025 64.568 160.025 67H132.569Z" fill="#0E5D7F"/>
</svg>
